<svg xmlns="http://www.w3.org/2000/svg" viewBox="0 0 160 160"><defs><style>.cls-10,.cls-9{fill:none;stroke:#aca385;stroke-miterlimit:10}.cls-9{stroke-width:.54px}.cls-10{stroke-width:.55px}.cls-15{fill:#aca385}</style></defs><g id="Layer_1"><path d="M80.18 5.49v51.48" class="cls-9"/><path d="M128.58 58.92H85.33V15.68" style="fill:none;stroke:#aca385;stroke-miterlimit:10;stroke-width:.54px"/><path d="M120.79 54.26H89.98V23.45" style="fill:none;stroke:#aca385;stroke-miterlimit:10;stroke-width:.54px"/><path d="M112.31 49.29H94.74V31.72" style="fill:none;stroke:#aca385;stroke-miterlimit:10;stroke-width:.54px"/><path d="M121.04 63.98h16.21" class="cls-10"/><path d="M75.33 112.35V69.1H32.09" style="fill:none;stroke:#aca385;stroke-miterlimit:10;stroke-width:.54px"/><path d="M70.44 104.6V73.78H39.63" style="fill:none;stroke:#aca385;stroke-miterlimit:10;stroke-width:.54px"/><path d="M65.49 96.11V78.54H47.92M31.79 59.13h43.24V15.89" style="fill:none;stroke:#aca385;stroke-miterlimit:10;stroke-width:.54px"/><path d="M48.06 49.29h17.57V31.72M128.55 68.84H85.3v43.24" style="fill:none;stroke:#aca385;stroke-miterlimit:10;stroke-width:.54px"/><path d="M120.79 73.73H89.98v30.81" style="fill:none;stroke:#aca385;stroke-miterlimit:10;stroke-width:.54px"/><path d="M112.31 78.68H94.74v17.57" style="fill:none;stroke:#aca385;stroke-miterlimit:10;stroke-width:.54px"/><path d="M79.53 58.46h1.31v1.31h-1.31zM42.14 63.33h1.31v1.31h-1.31zM118 63.32h1.31v1.31H118z" class="cls-15"/><path d="M23.92 63.98h16.21" class="cls-10"/><path d="m80.18 120.23.04-5.9" class="cls-9"/><path d="M39.53 54.49h30.81V23.68" style="stroke-width:.39px;fill:none;stroke:#aca385;stroke-miterlimit:10"/><path d="M79.54 111.69h1.31V113h-1.31zM79.97 127.49h1.31v1.31h-1.31zM81.96 130.71h1.31v1.31h-1.31zM77.64 130.71h1.31v1.31h-1.31zM53.55 136.9h-5.9399999999999995c0 1.64 0 3.02-.01 4.15 0 1.13-.01 2.42-.01 3.88s0 2.83.01 4.28c0 1.45.01 2.41.01 2.89h-.96c0-.48 0-1.46.01-2.93s.01-2.92.01-4.33 0-2.63-.01-3.73c0-1.1-.01-2.5-.01-4.2h-5.92v-.8h12.820000000000002v.8ZM67.48 151.79l-.71.57c-.18-.22-.8-.99-1.84-2.29-1.04-1.31-2.43-3.08-4.17-5.34v-.11c.46-.14.89-.32 1.3-.54s.82-.54 1.22-.93c.3-.3.54-.65.72-1.06s.28-.92.28-1.54c0-.74-.18-1.39-.53-1.93s-.82-.97-1.41-1.27c-.44-.22-.96-.38-1.55-.47s-1.21-.13-1.86-.13c-.31 0-.66 0-1.05.02-.39.01-.63.02-.72.02 0 1.49-.01 2.96-.02 4.41v2.9c0 1.09 0 2.58.01 4.46s.01 3.05.01 3.53h-.96c0-.48 0-1.41.01-2.79 0-1.38.01-3.09.01-5.15 0-.4 0-1.13-.01-2.2 0-1.07-.01-3.03-.01-5.9.08 0 .45 0 1.11-.02s1.27-.02 1.84-.02q.975 0 1.95.15c.65.1 1.23.27 1.74.5.7.32 1.28.82 1.73 1.49s.68 1.43.68 2.26c0 1.18-.32 2.14-.95 2.86a5.95 5.95 0 0 1-2.28 1.63v.06c.98 1.29 2.11 2.71 3.38 4.28q1.905 2.355 2.1 2.55ZM71.35 152.09h-.96c0-.48 0-1.33.01-2.56 0-1.23.01-2.99.01-5.29 0-.91 0-2.1-.01-3.58s-.01-3.01-.01-4.6h.96c0 1.14 0 2.47-.01 3.98 0 1.51-.01 2.75-.01 3.71 0 2.43 0 4.3.01 5.63 0 1.33.01 2.23.01 2.71M87.23 147.37c0 .8-.2 1.52-.59 2.16s-.96 1.16-1.69 1.57q-.975.54-2.13.78c-.77.16-1.66.25-2.66.25-.73 0-1.48-.01-2.24-.04s-1.19-.05-1.27-.05c.02-1.53.03-2.98.03-4.34v-3.9c0-2.35 0-4.2-.01-5.57 0-1.37-.01-2.08-.01-2.14.1 0 .51-.03 1.21-.06s1.39-.05 2.07-.05c.77 0 1.48.06 2.13.17s1.2.26 1.64.44c.68.29 1.21.7 1.61 1.24s.59 1.2.59 1.98c0 .82-.27 1.55-.81 2.17q-.81.945-1.8 1.35v.06c.5.05 1.03.18 1.58.4s1.01.52 1.38.92c.32.33.56.72.74 1.14.17.43.26.94.26 1.53Zm-.96.06c0-.45-.06-.86-.19-1.22s-.33-.69-.6-.98c-.34-.38-.83-.67-1.45-.89-.63-.22-1.3-.32-2.02-.32h-.79c-.21 0-.35 0-.43.02l-.14-.69c.67-.06 1.25-.18 1.74-.35s.92-.41 1.31-.72c.45-.38.78-.77.96-1.17s.28-.8.28-1.21c0-.64-.14-1.15-.43-1.53s-.65-.7-1.09-.94c-.46-.25-1.02-.44-1.66-.54-.65-.11-1.25-.16-1.8-.16-.35 0-.81 0-1.36.02-.56.02-.89.03-.99.04-.02 1.17-.03 2.54-.03 4.12v3.25c0 1.37 0 2.88.01 4.54 0 1.65.01 2.53.01 2.62.15 0 .53.02 1.13.04s1.02.03 1.25.03c.95 0 1.8-.08 2.55-.25.75-.16 1.42-.42 2.01-.76.53-.31.96-.71 1.27-1.19s.47-1.07.47-1.76ZM103.64 151.97l-.88.39c-.27-.59-.62-1.38-1.05-2.35s-1.02-2.3-1.77-3.98h-7.82c-.71 1.57-1.31 2.94-1.82 4.09s-.83 1.89-.99 2.22l-.82-.36c.26-.57 1.26-2.76 2.99-6.56s3.15-6.96 4.28-9.48h.7c.77 1.77 2.06 4.67 3.87 8.68 1.81 4.02 2.91 6.47 3.31 7.35m-4.04-6.71c-.51-1.17-1.1-2.51-1.78-4.02s-1.27-2.84-1.79-3.98h-.02q-.855 1.905-1.86 4.17c-.67 1.52-1.24 2.79-1.7 3.83s7.15.01 7.15.01ZM115.4 152.06h-9.15c0-1.37 0-2.76.01-4.17 0-1.41.01-2.79.01-4.15 0-2.27 0-3.99-.01-5.18s-.01-2.02-.01-2.5h.96c0 1.03 0 2.22-.01 3.57s-.01 2.45-.01 3.32c0 2.1 0 3.99.01 5.67s.01 2.57.01 2.65h8.2v.8ZM119.37 152.09h-.96c0-.48 0-1.33.01-2.56 0-1.23.01-2.99.01-5.29 0-.91 0-2.1-.01-3.58 0-1.48-.01-3.01-.01-4.6h.96c0 1.14 0 2.47-.01 3.98s-.01 2.75-.01 3.71c0 2.43 0 4.3.01 5.63 0 1.33.01 2.23.01 2.71" class="cls-15"/></g></svg>